<svg width="49" height="51" viewBox="0 0 49 51" fill="none" xmlns="http://www.w3.org/2000/svg">
<g filter="url(#filter0_d_75_13)">
<rect width="45" height="47" rx="4" fill="#F93030"/>
</g>
<path d="M22.5 12C17.9333 12 13.8398 13.771 11 16.6L22.5 35L34 16.6C31.173 13.7825 27.0667 12 22.5 12ZM16.104 17.75C16.104 16.485 17.2553 15.45 18.6624 15.45C20.0695 15.45 21.2208 16.485 21.2208 17.75C21.2208 19.015 20.0695 20.05 18.6624 20.05C17.2553 20.05 16.104 19.015 16.104 17.75ZM22.5 26.95C21.0929 26.95 19.9416 25.915 19.9416 24.65C19.9416 23.385 21.0929 22.35 22.5 22.35C23.9071 22.35 25.0584 23.385 25.0584 24.65C25.0584 25.915 23.9071 26.95 22.5 26.95Z" fill="white"/>
<defs>
<filter id="filter0_d_75_13" x="0" y="0" width="49" height="51" filterUnits="userSpaceOnUse" color-interpolation-filters="sRGB">
<feFlood flood-opacity="0" result="BackgroundImageFix"/>
<feColorMatrix in="SourceAlpha" type="matrix" values="0 0 0 0 0 0 0 0 0 0 0 0 0 0 0 0 0 0 127 0" result="hardAlpha"/>
<feOffset dx="2" dy="2"/>
<feGaussianBlur stdDeviation="1"/>
<feComposite in2="hardAlpha" operator="out"/>
<feColorMatrix type="matrix" values="0 0 0 0 0 0 0 0 0 0 0 0 0 0 0 0 0 0 0.25 0"/>
<feBlend mode="normal" in2="BackgroundImageFix" result="effect1_dropShadow_75_13"/>
<feBlend mode="normal" in="SourceGraphic" in2="effect1_dropShadow_75_13" result="shape"/>
</filter>
</defs>
</svg>
