<svg width="124" height="58" viewBox="0 0 124 58" fill="none" xmlns="http://www.w3.org/2000/svg">
<path d="M10.7578 3.16406H10.3359C8.20312 3.16406 6.59766 3.65039 5.51953 4.62305C4.21875 5.79492 3.56836 7.73438 3.56836 10.4414C3.56836 11.1914 3.65039 11.7891 3.81445 12.2344C3.86133 12.3867 3.91992 12.5215 3.99023 12.6387C4.03711 12.7207 4.06055 12.8027 4.06055 12.8848C2.75977 12.8848 1.81055 12.627 1.21289 12.1113C0.544922 11.5488 0.210938 10.6465 0.210938 9.4043C0.210938 8.16211 0.439453 6.98437 0.896484 5.87109C1.36523 4.74609 2.07422 3.76172 3.02344 2.91797C4.04297 2.00391 5.33789 1.29492 6.9082 0.791016C8.49023 0.287109 10.3535 0.0351562 12.498 0.0351562C13.7285 0.0351562 14.9062 0.105469 16.0312 0.246094C16.3828 0.28125 16.8398 0.345703 17.4023 0.439453C18.3398 0.615234 19.2422 0.732422 20.1094 0.791016C20.5312 0.837891 21.0645 0.861328 21.709 0.861328C22.5059 0.861328 23.2676 0.791016 23.9941 0.650391C24.7207 0.509766 25.3535 0.328125 25.8926 0.105469C25.834 1.67578 25.4297 2.83008 24.6797 3.56836C23.9414 4.30664 22.8457 4.67578 21.3926 4.67578C20.6074 4.67578 19.8164 4.61133 19.0195 4.48242C18.2227 4.35352 17.1504 4.1543 15.8027 3.88477L10.8281 27H5.66016L10.7578 3.16406ZM22.5879 27.1406C20.8066 27.1406 19.4297 26.707 18.457 25.8398C17.3672 24.8789 16.8223 23.4199 16.8223 21.4629C16.8223 20.7246 16.8984 19.9102 17.0508 19.0195C17.2031 18.1172 17.4375 17.209 17.7539 16.2949C18.4805 14.1152 19.5176 12.375 20.8652 11.0742C22.4941 9.48047 24.4336 8.68359 26.6836 8.68359C29.7656 8.68359 31.3066 10.5996 31.3066 14.4316V14.4668C31.377 14.4902 31.4355 14.502 31.4824 14.502H31.6934C32.4902 14.502 33.4336 14.2793 34.5234 13.834C35.4844 13.4355 36.3926 12.9375 37.248 12.3398L37.5645 13.3242C36.8613 14.0625 35.9531 14.6895 34.8398 15.2051C33.7383 15.7207 32.5195 16.0898 31.1836 16.3125C31.043 17.9414 30.7266 19.4297 30.2344 20.7773C29.7422 22.1133 29.1094 23.2617 28.3359 24.2227C27.5742 25.1602 26.7012 25.8809 25.7168 26.3848C24.7324 26.8887 23.6895 27.1406 22.5879 27.1406ZM24.0293 23.9062C24.4512 23.9062 24.8789 23.7188 25.3125 23.3438C25.7578 22.957 26.1738 22.4238 26.5605 21.7441C26.9473 21.0645 27.2812 20.2676 27.5625 19.3535C27.8438 18.4395 28.0547 17.4609 28.1953 16.418C27.8438 16.3242 27.5918 16.1484 27.4395 15.8906C27.2988 15.6328 27.2285 15.3047 27.2285 14.9062C27.2285 14.4141 27.3281 14.0039 27.5273 13.6758C27.7266 13.3477 28.002 13.1074 28.3535 12.9551C28.3066 12.1934 28.1836 11.6484 27.9844 11.3203C27.8789 11.1562 27.7441 11.0391 27.5801 10.9688C27.4277 10.8984 27.2285 10.8633 26.9824 10.8633C26.1738 10.8633 25.3828 11.4727 24.6094 12.6914C23.8945 13.793 23.3086 15.1523 22.8516 16.7695C22.4062 18.3516 22.1836 19.7578 22.1836 20.9883C22.1836 21.5859 22.2129 22.0723 22.2715 22.4473C22.3418 22.8223 22.4531 23.1152 22.6055 23.3262C22.7461 23.5371 22.9277 23.6895 23.1504 23.7832C23.373 23.8652 23.666 23.9062 24.0293 23.9062ZM46.1426 27.2109C44.6543 27.2109 43.5527 26.7891 42.8379 25.9453C42.2168 25.2188 41.9062 24.2871 41.9062 23.1504C41.9062 22.6113 41.9707 21.9844 42.0996 21.2695C42.2402 20.5547 42.4453 19.6348 42.7148 18.5098C42.9844 17.3613 43.1836 16.4473 43.3125 15.7676C43.4531 15.0762 43.5234 14.4785 43.5234 13.9746C43.5234 12.7441 43.0898 12.1289 42.2227 12.1289C41.6133 12.1289 41.0508 12.4512 40.5352 13.0957C40.1016 13.6465 39.7266 14.4316 39.4102 15.4512L36.9668 27H31.7812L35.5957 9H40.7812L40.3945 10.8633C41.0977 10.0781 41.8535 9.52734 42.6621 9.21094C43.2598 8.97656 43.9043 8.85938 44.5957 8.85938C45.8145 8.85938 46.7754 9.17578 47.4785 9.80859C48.2285 10.5 48.6035 11.5371 48.6035 12.9199C48.6035 13.752 48.4512 14.8359 48.1465 16.1719C48.0645 16.5586 47.9297 17.1387 47.7422 17.9121C47.4023 19.2129 47.1562 20.25 47.0039 21.0234C46.9102 21.5156 46.8633 21.9141 46.8633 22.2188C46.8633 22.6992 46.9688 23.0742 47.1797 23.3438C47.4023 23.6016 47.7773 23.7305 48.3047 23.7305C49.0195 23.7305 49.623 23.4375 50.1152 22.8516C50.4902 22.4062 50.8945 21.6387 51.3281 20.5488H52.8398C51.9492 23.1855 50.8242 25.0312 49.4648 26.0859C48.5039 26.8359 47.3965 27.2109 46.1426 27.2109ZM56.9355 36C56.373 36 55.8457 35.9238 55.3535 35.7715C54.873 35.6309 54.457 35.4141 54.1055 35.1211C53.7305 34.8281 53.4375 34.459 53.2266 34.0137C53.0156 33.5801 52.9102 33.0762 52.9102 32.502C52.9102 31.1426 53.5488 29.9766 54.8262 29.0039C55.7871 28.2891 57.1055 27.668 58.7812 27.1406L59.2207 25.207C58.5176 25.9805 57.7559 26.5254 56.9355 26.8418C56.3027 27.0879 55.623 27.2109 54.8965 27.2109C53.748 27.2109 52.8398 26.8711 52.1719 26.1914C51.4219 25.4414 51.0469 24.3457 51.0469 22.9043C51.0469 22.2246 51.1406 21.4395 51.3281 20.5488L53.7715 9H58.957L56.373 21.2344C56.3027 21.5273 56.2676 21.832 56.2676 22.1484C56.2676 22.6055 56.3438 22.9688 56.4961 23.2383C56.6719 23.5664 56.9531 23.7305 57.3398 23.7305C57.9727 23.7305 58.541 23.4492 59.0449 22.8867C59.4785 22.4062 59.8477 21.7031 60.1523 20.7773L62.666 9H67.8516L64.2832 25.6992C65.4199 25.3242 66.3281 24.7617 67.0078 24.0117C67.7461 23.2031 68.3496 22.0488 68.8184 20.5488H70.3301C69.6855 22.6816 68.7246 24.3281 67.4473 25.4883C66.5098 26.332 65.3496 26.9297 63.9668 27.2812L63.4219 29.8828C62.9648 32.1797 62.0508 33.8438 60.6797 34.875C59.6836 35.625 58.4355 36 56.9355 36ZM56.1094 33.1875C56.4727 33.1875 56.8594 32.9238 57.2695 32.3965C57.668 31.8809 57.9785 31.0781 58.2012 29.9883L58.4121 28.9512C57.3223 29.3613 56.5078 29.7773 55.9688 30.1992C55.2539 30.7383 54.8965 31.3418 54.8965 32.0098C54.8965 32.3262 54.9961 32.5898 55.1953 32.8008C55.418 33.0586 55.7227 33.1875 56.1094 33.1875ZM8.2793 34.0957L13.6055 33.3926L11.0566 45.416C12.1934 45.334 13.2773 44.8066 14.3086 43.834C15.2461 42.9551 15.9902 41.8418 16.541 40.4941C17.0801 39.2051 17.3496 37.8926 17.3496 36.5566C17.3496 35.1504 17.0039 33.9961 16.3125 33.0938C15.9375 32.6367 15.4629 32.2852 14.8887 32.0391C14.3145 31.7812 13.6465 31.6523 12.8848 31.6523C11.4316 31.6523 10.125 31.8516 8.96484 32.25C7.81641 32.6484 6.83789 33.2227 6.0293 33.9727C5.2207 34.7227 4.60547 35.6426 4.18359 36.7324C3.77344 37.8223 3.56836 39.0469 3.56836 40.4062C3.56836 41.1562 3.65039 41.7539 3.81445 42.1992C3.86133 42.3516 3.91992 42.4863 3.99023 42.6035C4.03711 42.6855 4.06055 42.7676 4.06055 42.8496C2.75977 42.8496 1.81055 42.5918 1.21289 42.0762C0.544922 41.5137 0.210938 40.6055 0.210938 39.3516C0.210938 38.5664 0.380859 37.793 0.720703 37.0312C1.06055 36.2578 1.54102 35.5137 2.16211 34.7988C2.74805 34.1191 3.44531 33.4863 4.25391 32.9004C5.07422 32.3027 5.95898 31.7871 6.9082 31.3535C8.90039 30.4512 10.8809 30 12.8496 30C15.627 30 17.7832 30.7207 19.3184 32.1621C19.998 32.8066 20.502 33.5508 20.8301 34.3945C21.1699 35.2383 21.3398 36.1348 21.3398 37.084C21.3398 38.2441 21.0996 39.3984 20.6191 40.5469C20.1504 41.6953 19.4707 42.7207 18.5801 43.623C17.6426 44.584 16.5234 45.3457 15.2227 45.9082C13.9336 46.459 12.5098 46.7344 10.9512 46.7344H10.7578L8.56055 57H3.39258L8.2793 34.0957ZM26.6484 37.0488C26.2617 37.0488 25.8926 36.9785 25.541 36.8379C25.1895 36.6855 24.8848 36.4805 24.627 36.2227C24.3691 35.9766 24.1641 35.6777 24.0117 35.3262C23.8711 34.9746 23.8008 34.6055 23.8008 34.2188C23.8008 33.832 23.8711 33.4629 24.0117 33.1113C24.1641 32.7598 24.3691 32.4492 24.627 32.1797C24.8848 31.9102 25.1895 31.7051 25.541 31.5645C25.8926 31.4121 26.2617 31.3359 26.6484 31.3359C27.0352 31.3359 27.4043 31.4121 27.7559 31.5645C28.1074 31.7051 28.418 31.9102 28.6875 32.1797C28.957 32.4492 29.1621 32.7598 29.3027 33.1113C29.4551 33.4629 29.5312 33.832 29.5312 34.2188C29.5312 34.6055 29.4551 34.9746 29.3027 35.3262C29.1621 35.6777 28.957 35.9766 28.6875 36.2227C28.418 36.4805 28.1074 36.6855 27.7559 36.8379C27.4043 36.9785 27.0352 37.0488 26.6484 37.0488ZM24.2051 57.2109C23.0566 57.2109 22.1484 56.8711 21.4805 56.1914C20.7305 55.4414 20.3555 54.3457 20.3555 52.9043C20.3555 52.2246 20.4492 51.4395 20.6367 50.5488L23.0801 39H28.2656L25.6816 51.2344C25.5879 51.5391 25.541 51.9258 25.541 52.3945C25.541 52.8867 25.6523 53.2324 25.875 53.4316C26.1094 53.6309 26.4844 53.7305 27 53.7305C27.3516 53.7305 27.6914 53.6543 28.0195 53.502C28.3594 53.3379 28.6699 53.1152 28.9512 52.834C29.5254 52.2598 29.959 51.498 30.252 50.5488H31.7637C31.1191 52.3652 30.3105 53.8125 29.3379 54.8906C28.5176 55.7695 27.5918 56.4023 26.5605 56.7891C25.8105 57.0703 25.0254 57.2109 24.2051 57.2109ZM39.4453 40.9512H37.4414C36.7969 40.9512 36.3281 40.9805 36.0352 41.0391C35.6484 41.1094 35.4551 41.2676 35.4551 41.5137C35.4551 41.5723 35.4785 41.6074 35.5254 41.6191C35.6191 41.6426 35.707 41.7246 35.7891 41.8652C35.8242 41.9473 35.8418 42.0938 35.8418 42.3047C35.8418 42.9375 35.6426 43.4238 35.2441 43.7637C34.8691 44.0684 34.4238 44.2207 33.9082 44.2207C33.4863 44.2207 33.1113 44.0859 32.7832 43.8164C32.4316 43.5234 32.2559 43.1309 32.2559 42.6387C32.2559 42.2637 32.3555 41.8652 32.5547 41.4434C32.7539 41.0098 33.0293 40.6172 33.3809 40.2656C33.7559 39.8789 34.2012 39.5742 34.7168 39.3516C35.2441 39.1172 35.8125 39 36.4219 39H45.6855L36.8613 54.2227C36.9785 54.2344 37.3887 54.2754 38.0918 54.3457C38.584 54.416 39.082 54.4512 39.5859 54.4512C40.0781 54.4512 40.4707 54.3984 40.7637 54.293C41.0566 54.1875 41.2324 54 41.291 53.7305C41.0566 53.707 40.8809 53.6309 40.7637 53.502C40.6582 53.3613 40.6055 53.1855 40.6055 52.9746C40.6055 52.7988 40.6465 52.623 40.7285 52.4473C40.8223 52.2598 40.9512 52.0898 41.1152 51.9375C41.5137 51.5977 42.0117 51.4277 42.6094 51.4277C43.1484 51.4277 43.5469 51.5859 43.8047 51.9023C44.0742 52.2188 44.209 52.6348 44.209 53.1504C44.209 53.5723 44.1094 54.0117 43.9102 54.4688C43.7109 54.9141 43.4238 55.3242 43.0488 55.6992C42.6504 56.0977 42.1758 56.4141 41.625 56.6484C41.0859 56.8828 40.4824 57 39.8145 57H30.2695L39.4453 40.9512ZM54.8789 40.9512H52.875C52.2305 40.9512 51.7617 40.9805 51.4688 41.0391C51.082 41.1094 50.8887 41.2676 50.8887 41.5137C50.8887 41.5723 50.9121 41.6074 50.959 41.6191C51.0527 41.6426 51.1406 41.7246 51.2227 41.8652C51.2578 41.9473 51.2754 42.0938 51.2754 42.3047C51.2754 42.9375 51.0762 43.4238 50.6777 43.7637C50.3027 44.0684 49.8574 44.2207 49.3418 44.2207C48.9199 44.2207 48.5449 44.0859 48.2168 43.8164C47.8652 43.5234 47.6895 43.1309 47.6895 42.6387C47.6895 42.2637 47.7891 41.8652 47.9883 41.4434C48.1875 41.0098 48.4629 40.6172 48.8145 40.2656C49.1895 39.8789 49.6348 39.5742 50.1504 39.3516C50.6777 39.1172 51.2461 39 51.8555 39H61.1191L52.2949 54.2227C52.4121 54.2344 52.8223 54.2754 53.5254 54.3457C54.0176 54.416 54.5156 54.4512 55.0195 54.4512C55.5117 54.4512 55.9043 54.3984 56.1973 54.293C56.4902 54.1875 56.666 54 56.7246 53.7305C56.4902 53.707 56.3145 53.6309 56.1973 53.502C56.0918 53.3613 56.0391 53.1855 56.0391 52.9746C56.0391 52.7988 56.0801 52.623 56.1621 52.4473C56.2559 52.2598 56.3848 52.0898 56.5488 51.9375C56.9473 51.5977 57.4453 51.4277 58.043 51.4277C58.582 51.4277 58.9805 51.5859 59.2383 51.9023C59.5078 52.2188 59.6426 52.6348 59.6426 53.1504C59.6426 53.5723 59.543 54.0117 59.3438 54.4688C59.1445 54.9141 58.8574 55.3242 58.4824 55.6992C58.084 56.0977 57.6094 56.4141 57.0586 56.6484C56.5195 56.8828 55.916 57 55.248 57H45.7031L54.8789 40.9512ZM65.4609 57.2109C64.0898 57.2109 62.9824 56.7832 62.1387 55.9277C61.1543 54.9199 60.6621 53.4199 60.6621 51.4277C60.6621 50.584 60.75 49.6934 60.9258 48.7559C61.0898 47.8184 61.3359 46.8926 61.6641 45.9785C62.4141 43.916 63.4395 42.252 64.7402 40.9863C66.2402 39.5449 67.9688 38.8242 69.9258 38.8242C70.8984 38.8242 71.625 38.9941 72.1055 39.334C72.5977 39.6621 72.8438 40.1016 72.8438 40.6523V40.916L73.2305 39H78.416L75.832 51.2344C75.7266 51.5859 75.6738 51.9727 75.6738 52.3945C75.6738 53.4258 76.166 53.9414 77.1504 53.9414C77.8066 53.9414 78.4043 53.6074 78.9434 52.9395C79.4004 52.377 79.7754 51.5801 80.0684 50.5488H81.5801C80.9355 52.377 80.1562 53.8242 79.2422 54.8906C78.4688 55.7695 77.5957 56.4023 76.623 56.7891C75.9082 57.0703 75.1523 57.2109 74.3555 57.2109C73.3359 57.2109 72.5215 56.9355 71.9121 56.3848C71.3145 55.8223 70.9512 54.9961 70.8223 53.9062C70.1426 54.8672 69.4277 55.6172 68.6777 56.1562C67.7168 56.8594 66.6445 57.2109 65.4609 57.2109ZM67.7988 53.7305C68.0684 53.7305 68.3496 53.6602 68.6426 53.5195C68.9473 53.3789 69.2402 53.1797 69.5215 52.9219C70.1543 52.3125 70.5762 51.5215 70.7871 50.5488L72.5098 42.4277C72.5098 42.3105 72.4805 42.1758 72.4219 42.0234C72.375 41.8594 72.3047 41.707 72.2109 41.5664C71.9297 41.2266 71.5371 41.0566 71.0332 41.0566C70.5527 41.0566 70.084 41.2148 69.627 41.5312C69.1816 41.8477 68.7598 42.2871 68.3613 42.8496C67.6582 43.8691 67.0781 45.1992 66.6211 46.8398C66.4102 47.5664 66.252 48.2871 66.1465 49.002C66.041 49.7051 65.9883 50.3438 65.9883 50.918C65.9883 52.1133 66.2109 52.9219 66.6562 53.3438C66.8086 53.5078 66.9785 53.6133 67.166 53.6602C67.3535 53.707 67.5645 53.7305 67.7988 53.7305ZM82.5293 39H87.7148L87.2578 41.2324C88.0781 40.5059 88.7461 39.9902 89.2617 39.6855C90.0586 39.2285 90.8379 39 91.5996 39C92.373 39 92.9941 39.2754 93.4629 39.8262C93.6738 40.0723 93.832 40.3594 93.9375 40.6875C94.043 41.0039 94.0957 41.3438 94.0957 41.707C94.0957 42.0352 94.043 42.3516 93.9375 42.6562C93.832 42.9609 93.6738 43.2363 93.4629 43.4824C93.2285 43.7402 92.9414 43.9453 92.6016 44.0977C92.2734 44.25 91.9043 44.3262 91.4941 44.3262C91.1777 44.3262 90.9258 44.2734 90.7383 44.168C90.5508 44.0625 90.4043 43.9102 90.2988 43.7109C90.2051 43.5117 90.1406 43.3184 90.1055 43.1309C90 42.627 89.8945 42.293 89.7891 42.1289C89.707 42.0117 89.5781 41.9531 89.4023 41.9531C88.8984 41.9531 88.4707 42.0586 88.1191 42.2695C87.7676 42.4805 87.3223 42.832 86.7832 43.3242L83.9004 57H78.7148L82.5293 39ZM99.6328 37.0488C99.2461 37.0488 98.877 36.9785 98.5254 36.8379C98.1738 36.6855 97.8691 36.4805 97.6113 36.2227C97.3535 35.9766 97.1484 35.6777 96.9961 35.3262C96.8555 34.9746 96.7852 34.6055 96.7852 34.2188C96.7852 33.832 96.8555 33.4629 96.9961 33.1113C97.1484 32.7598 97.3535 32.4492 97.6113 32.1797C97.8691 31.9102 98.1738 31.7051 98.5254 31.5645C98.877 31.4121 99.2461 31.3359 99.6328 31.3359C100.02 31.3359 100.389 31.4121 100.74 31.5645C101.092 31.7051 101.402 31.9102 101.672 32.1797C101.941 32.4492 102.146 32.7598 102.287 33.1113C102.439 33.4629 102.516 33.832 102.516 34.2188C102.516 34.6055 102.439 34.9746 102.287 35.3262C102.146 35.6777 101.941 35.9766 101.672 36.2227C101.402 36.4805 101.092 36.6855 100.74 36.8379C100.389 36.9785 100.02 37.0488 99.6328 37.0488ZM97.1895 57.2109C96.041 57.2109 95.1328 56.8711 94.4648 56.1914C93.7148 55.4414 93.3398 54.3457 93.3398 52.9043C93.3398 52.2246 93.4336 51.4395 93.6211 50.5488L96.0645 39H101.25L98.666 51.2344C98.5723 51.5391 98.5254 51.9258 98.5254 52.3945C98.5254 52.8867 98.6367 53.2324 98.8594 53.4316C99.0938 53.6309 99.4688 53.7305 99.9844 53.7305C100.336 53.7305 100.676 53.6543 101.004 53.502C101.344 53.3379 101.654 53.1152 101.936 52.834C102.51 52.2598 102.943 51.498 103.236 50.5488H104.748C104.104 52.3652 103.295 53.8125 102.322 54.8906C101.502 55.7695 100.576 56.4023 99.5449 56.7891C98.7949 57.0703 98.0098 57.2109 97.1895 57.2109ZM107.578 57.2109C106.207 57.2109 105.1 56.7832 104.256 55.9277C103.271 54.9199 102.779 53.4199 102.779 51.4277C102.779 50.584 102.867 49.6934 103.043 48.7559C103.207 47.8184 103.453 46.8926 103.781 45.9785C104.531 43.916 105.557 42.252 106.857 40.9863C108.357 39.5449 110.086 38.8242 112.043 38.8242C113.016 38.8242 113.742 38.9941 114.223 39.334C114.715 39.6621 114.961 40.1016 114.961 40.6523V40.916L115.348 39H120.533L117.949 51.2344C117.844 51.5859 117.791 51.9727 117.791 52.3945C117.791 53.4258 118.283 53.9414 119.268 53.9414C119.924 53.9414 120.521 53.6074 121.061 52.9395C121.518 52.377 121.893 51.5801 122.186 50.5488H123.697C123.053 52.377 122.273 53.8242 121.359 54.8906C120.586 55.7695 119.713 56.4023 118.74 56.7891C118.025 57.0703 117.27 57.2109 116.473 57.2109C115.453 57.2109 114.639 56.9355 114.029 56.3848C113.432 55.8223 113.068 54.9961 112.939 53.9062C112.26 54.8672 111.545 55.6172 110.795 56.1562C109.834 56.8594 108.762 57.2109 107.578 57.2109ZM109.916 53.7305C110.186 53.7305 110.467 53.6602 110.76 53.5195C111.064 53.3789 111.357 53.1797 111.639 52.9219C112.271 52.3125 112.693 51.5215 112.904 50.5488L114.627 42.4277C114.627 42.3105 114.598 42.1758 114.539 42.0234C114.492 41.8594 114.422 41.707 114.328 41.5664C114.047 41.2266 113.654 41.0566 113.15 41.0566C112.67 41.0566 112.201 41.2148 111.744 41.5312C111.299 41.8477 110.877 42.2871 110.479 42.8496C109.775 43.8691 109.195 45.1992 108.738 46.8398C108.527 47.5664 108.369 48.2871 108.264 49.002C108.158 49.7051 108.105 50.3438 108.105 50.918C108.105 52.1133 108.328 52.9219 108.773 53.3438C108.926 53.5078 109.096 53.6133 109.283 53.6602C109.471 53.707 109.682 53.7305 109.916 53.7305Z" fill="white"/>
</svg>
